<svg xmlns="http://www.w3.org/2000/svg" width="600" height="600"><path fill="#62A3CF" d="M267 23c2.45 2.188 3.611 4.029 4.723 7.109l.927 2.527.983 2.759 1.06 2.908a2829 2829 0 0 1 3.432 9.51l2.388 6.578q1.856 5.103 3.705 10.207a3076 3076 0 0 0 8.75 23.816l1.197 3.22q2.294 6.176 4.596 12.35 1.58 4.239 3.153 8.48l.954 2.548C305 120.772 305 120.772 305 123c4.405-3.454 7.822-6.982 11.188-11.437l2.894-3.754 1.471-1.923a966 966 0 0 1 6.822-8.761l1.358-1.732c4.08-5.189 8.247-10.304 12.42-15.418 4.518-5.547 8.947-11.16 13.355-16.795a967 967 0 0 1 8.574-10.782 446 446 0 0 0 4.117-5.234l2.176-2.789 1.96-2.54L373 40h2c.308 17.582-.569 35.13-1.332 52.69q-.21 4.868-.412 9.735a14097 14097 0 0 1-.595 14.024A1671 1671 0 0 1 371 148c12.446-6.387 24.78-12.92 36.932-19.851 9.2-5.244 18.468-10.357 27.748-15.455 5.2-2.858 10.396-5.72 15.543-8.674l2.244-1.287q1.945-1.12 3.88-2.26c3.198-1.84 5.985-2.987 9.653-3.473a137 137 0 0 1-6.738 17.355l-1.083 2.34q-1.741 3.748-3.491 7.493l-2.432 5.237A7786 7786 0 0 1 446 145l-1.06 2.272q-3.678 7.879-7.363 15.755A1828 1828 0 0 0 423 195c10.78-.554 21.454-1.514 32.171-2.772q3.868-.453 7.738-.895 10.98-1.262 21.96-2.543 6.767-.787 13.536-1.56 2.553-.293 5.105-.594c8.843-1.042 17.566-1.978 26.49-1.636-1.788 3.873-3.98 6.027-7.187 8.875q-1.633 1.464-3.262 2.93l-1.748 1.565c-3.138 2.837-6.217 5.736-9.303 8.63a2260 2260 0 0 1-19.5 18l-6 5.5q-4.481 4.11-8.965 8.215A6749 6749 0 0 0 452 259c18.663 5.852 37.415 11.328 56.232 16.66q8.33 2.363 16.66 4.733l5.697 1.615A947 947 0 0 1 554 289v3c-18.585 7.231-37.258 14.187-56 21v2c1.853 1.353 3.76 2.63 5.688 3.875 14.147 9.507 27.091 22.145 35.125 37.313 2.644 4.181 5.608 4.818 10.312 6q1.995.437 3.988.87c16.029 3.883 29.383 16.07 38.137 29.692 9.443 16.598 11.719 36.864 7.188 55.375-6.14 19.316-18.458 33.514-36.125 43.125-7.375 3.528-16.197 6.406-24.39 6.867-4.046.229-5.709.685-8.724 3.473a126 126 0 0 0-2.511 3.348 487 487 0 0 1-2.848 3.578l-1.434 1.795c-19.144 23.006-51.113 35.46-80.103 38.493-16.427 1.4-32.407-.664-48.303-4.804l-1 9c-3.433-1.717-4.798-2.577-7.234-5.258l-1.739-1.894-1.777-1.973-1.824-1.996A1035 1035 0 0 1 376 537c-4.232 1.402-8.46 2.811-12.668 4.281-21.616 7.485-43.765 10.185-66.332 5.719l-.334 1.816c-1.215 6.357-2.77 12.542-4.603 18.746-.253.9-.505 1.801-.764 2.729l-.764 2.588-.675 2.33L289 577l-3 1a6304 6304 0 0 1-5.554-14.789q-.944-2.517-1.892-5.031-1.361-3.614-2.71-7.23l-.862-2.274C273.858 545.65 273 543.256 273 540l-3.5-.937c-12.722-4.261-24.573-12.261-34.082-21.598l-2.606-2.528-2.292-2.347c-2.506-1.865-2.506-1.865-5.93-1.785-4.922 1.638-6.82 4.304-9.84 8.382l-1.686 2.177a530 530 0 0 0-3.415 4.463c-1.992 2.626-4.031 5.212-6.077 7.797a1124 1124 0 0 0-4.076 5.192 958 958 0 0 1-8.644 10.852c-2.533 3.19-4.976 6.447-7.407 9.715L182 561h-2c-.108-12.447-.065-24.873.438-37.312l.118-3.106.128-2.883.11-2.536C181 513 181 513 182 510l-3.008-.27c-4.402-.634-7.956-2.372-11.867-4.418l-2.129-1.093C154.041 498.507 143.18 491.306 136 481v-2l-2.392 1.326c-26.52 14.69-26.52 14.69-36.796 20.174l-2.062 1.111C90.24 504 90.24 504 88 504c.612-3.716 1.67-6.786 3.266-10.191l1.43-3.073 1.554-3.298 1.602-3.434q1.69-3.625 3.388-7.246c2.653-5.66 5.283-11.331 7.915-17.002q1.238-2.664 2.479-5.327 1.515-3.253 3.013-6.515a220 220 0 0 1 2.595-5.408c2.537-5.231 3.315-9.528 3.32-15.318.047-7.416 1.45-14.045 3.438-21.188l-1.656.2a18688 18688 0 0 1-51.283 6.149q-7.592.9-15.188 1.768-2.217.254-4.433.516c-8.505 1-16.868 1.603-25.44 1.367 4.9-6.126 10.545-11.282 16.36-16.518 2.712-2.452 5.394-4.936 8.078-7.42L55 386a5816 5816 0 0 1 20.474-18.85q3.935-3.6 7.85-7.224l1.687-1.561 3.318-3.073c3.96-3.66 7.983-7.24 12.062-10.769 1.714-1.449 1.714-1.449 2.609-3.523l-1.656-.35c-5.476-1.185-10.858-2.574-16.241-4.124l-2.541-.726-13.989-4.01q-6.02-1.726-12.038-3.457a9771 9771 0 0 0-15.396-4.411 9089 9089 0 0 1-11.885-3.41 3782 3782 0 0 0-5.677-1.626q-3.971-1.136-7.939-2.282l-2.346-.666C8.686 314.6 4.372 312.975 0 311c2.581-3.109 5.368-4.101 9.121-5.469l1.914-.705c2.131-.784 4.267-1.555 6.403-2.326l4.556-1.667q5.098-1.865 10.2-3.719c5.285-1.922 10.564-3.86 15.842-5.802q7.019-2.581 14.04-5.157l6.939-2.55a6844 6844 0 0 1 9.864-3.613l2.954-1.087A272 272 0 0 1 100 273c-3.454-4.405-6.982-7.822-11.437-11.187l-3.754-2.895-1.923-1.471a966 966 0 0 1-8.761-6.822l-1.732-1.358c-5.189-4.08-10.304-8.247-15.418-12.42-5.547-4.518-11.16-8.947-16.795-13.355a967 967 0 0 1-10.782-8.574 446 446 0 0 0-5.234-4.117l-2.789-2.176-2.54-1.96L17 205v-2c18.34-.28 36.627.534 54.944 1.332q4.875.21 9.75.412l9.543.405 4.485.19c9.77.413 19.523.967 29.278 1.661-6.045-11.745-12.267-23.361-18.805-34.84-6.224-10.935-12.285-21.96-18.344-32.987a1555 1555 0 0 0-6.312-11.357l-1.57-2.811a964 964 0 0 0-2.872-5.105l-1.253-2.252c-.36-.637-.718-1.275-1.088-1.932C74 114 74 114 74 111c7.238 2.24 13.962 5.152 20.813 8.375l3.435 1.6q3.588 1.673 7.173 3.35a6743 6743 0 0 0 17.016 7.925l3.403 1.582c15.353 7.13 30.76 14.144 46.16 21.168-.578-10.395-1.56-20.697-2.772-31.035q-.453-3.868-.895-7.738-1.261-10.984-2.543-21.966-.787-6.764-1.56-13.532a1667 1667 0 0 0-.594-5.103C162.545 66.378 161.681 57.333 162 48c3.873 1.788 6.027 3.98 8.875 7.188q1.46 1.628 2.922 3.253l1.564 1.747c2.88 3.184 5.826 6.307 8.764 9.437a856 856 0 0 1 13.469 14.719c3.098 3.42 6.251 6.788 9.406 10.156 4.62 4.934 9.19 9.905 13.7 14.941q4.345 4.831 8.738 9.621c.52.574 1.041 1.147 1.578 1.737 2.674 3 2.674 3 5.984 5.201l.698-3.427c1.707-7.665 3.97-15.188 6.134-22.733l1.435-5.026q1.502-5.256 3.009-10.512 1.909-6.667 3.812-13.336 1.481-5.19 2.967-10.38.703-2.455 1.403-4.91c2.362-8.27 4.766-16.526 7.306-24.744l.637-2.076c1.48-4.737 1.48-4.737 2.599-5.856"/><path fill="#FDFD57" d="M267 23c2.45 2.188 3.611 4.029 4.723 7.109l.927 2.527.983 2.759 1.06 2.908a2829 2829 0 0 1 3.432 9.51l2.388 6.578q1.856 5.103 3.705 10.207a3076 3076 0 0 0 8.75 23.816l1.197 3.22q2.294 6.176 4.596 12.35 1.58 4.239 3.153 8.48l.954 2.548C305 120.772 305 120.772 305 123c4.405-3.454 7.822-6.982 11.188-11.437l2.894-3.754 1.471-1.923a966 966 0 0 1 6.822-8.761l1.358-1.732c4.08-5.189 8.247-10.304 12.42-15.418 4.518-5.547 8.947-11.16 13.355-16.795a967 967 0 0 1 8.574-10.782 446 446 0 0 0 4.117-5.234l2.176-2.789 1.96-2.54L373 40h2c.308 17.582-.569 35.13-1.332 52.69q-.21 4.868-.412 9.735a14097 14097 0 0 1-.595 14.024A1671 1671 0 0 1 371 148c12.446-6.387 24.78-12.92 36.932-19.851 9.2-5.244 18.468-10.357 27.748-15.455 5.2-2.858 10.396-5.72 15.543-8.674l2.244-1.287q1.945-1.12 3.88-2.26c3.198-1.84 5.985-2.987 9.653-3.473a137 137 0 0 1-6.738 17.355l-1.083 2.34q-1.741 3.748-3.491 7.493l-2.432 5.237A7786 7786 0 0 1 446 145l-1.06 2.272q-3.678 7.879-7.363 15.755A1828 1828 0 0 0 423 195c10.78-.554 21.454-1.514 32.171-2.772q3.868-.453 7.738-.895 10.98-1.262 21.96-2.543 6.767-.787 13.536-1.56 2.553-.293 5.105-.594c8.843-1.042 17.566-1.978 26.49-1.636-1.788 3.873-3.98 6.027-7.187 8.875q-1.633 1.464-3.262 2.93l-1.748 1.565c-3.138 2.837-6.217 5.736-9.303 8.63a2260 2260 0 0 1-19.5 18l-6 5.5q-4.481 4.11-8.965 8.215A6749 6749 0 0 0 452 259c18.663 5.852 37.415 11.328 56.232 16.66q8.33 2.363 16.66 4.733l5.697 1.615A947 947 0 0 1 554 289v3a3777 3777 0 0 1-26 10l-2.029.773q-6.112 2.326-12.241 4.612a800 800 0 0 0-3.937 1.484c-1.85.701-3.704 1.389-5.559 2.076l-3.212 1.204c-6.606 1.86-10.72.318-16.584-2.774-6.647-3.315-13.292-5.789-20.438-7.812l-2.604-.747c-9.824-2.677-19.333-3.027-29.496-3.056-2-.01-4.001-.041-6.002-.072-12.14-.048-23.415 1.813-34.898 5.812l-3.562 1.219a116 116 0 0 0-7.165 2.941c-4.083 1.672-6.019 1.44-10.273.34a158 158 0 0 1-4.062-1.89c-5.06-2.286-10.16-3.587-15.563-4.798l-2.734-.642c-33.447-7.728-67.497-1.56-96.641 16.33-13.388 9.037-13.388 9.037-23.93 21.012-2.328 3.43-4.276 6.235-8.07 7.988-6.509 1.043-13.04.576-19.59.191-19.752-1.026-38.187 8.652-52.785 21.247-8.05 7.642-13.727 15.948-18.766 25.753l-.894 1.73c-1.019 2.073-1.019 2.073-1.668 4.348-.854 2.548-1.722 4.546-3.297 6.731-3.25 1.583-6.487 1.782-10.062 2.05l-3.053.333c-3.293.35-6.587.64-9.885.93q-3.404.343-6.807.7-6.846.706-13.698 1.354c-5.807.555-11.6 1.196-17.393 1.887l-4.899.579-6.765.802c-8.504 1-16.867 1.6-25.438 1.365 4.9-6.126 10.545-11.282 16.36-16.518 2.712-2.452 5.394-4.936 8.078-7.42L55 386a5816 5816 0 0 1 20.474-18.85q3.935-3.6 7.85-7.224l1.687-1.561 3.318-3.073c3.96-3.66 7.983-7.24 12.062-10.769 1.714-1.449 1.714-1.449 2.609-3.523l-1.656-.35c-5.476-1.185-10.858-2.574-16.241-4.124l-2.541-.726-13.989-4.01q-6.02-1.726-12.038-3.457a9771 9771 0 0 0-15.396-4.411 9089 9089 0 0 1-11.885-3.41 3782 3782 0 0 0-5.677-1.626q-3.971-1.136-7.939-2.282l-2.346-.666C8.686 314.6 4.372 312.975 0 311c2.581-3.109 5.368-4.101 9.121-5.469l1.914-.705c2.131-.784 4.267-1.555 6.403-2.326l4.556-1.667q5.098-1.865 10.2-3.719c5.285-1.922 10.564-3.86 15.842-5.802q7.019-2.581 14.04-5.157l6.939-2.55a6844 6844 0 0 1 9.864-3.613l2.954-1.087A272 272 0 0 1 100 273c-3.454-4.405-6.982-7.822-11.437-11.187l-3.754-2.895-1.923-1.471a966 966 0 0 1-8.761-6.822l-1.732-1.358c-5.189-4.08-10.304-8.247-15.418-12.42-5.547-4.518-11.16-8.947-16.795-13.355a967 967 0 0 1-10.782-8.574 446 446 0 0 0-5.234-4.117l-2.789-2.176-2.54-1.96L17 205v-2c18.34-.28 36.627.534 54.944 1.332q4.875.21 9.75.412l9.543.405 4.485.19c9.77.413 19.523.967 29.278 1.661-6.045-11.745-12.267-23.361-18.805-34.84-6.224-10.935-12.285-21.96-18.344-32.987a1555 1555 0 0 0-6.312-11.357l-1.57-2.811a964 964 0 0 0-2.872-5.105l-1.253-2.252c-.36-.637-.718-1.275-1.088-1.932C74 114 74 114 74 111c7.238 2.24 13.962 5.152 20.813 8.375l3.435 1.6q3.588 1.673 7.173 3.35a6743 6743 0 0 0 17.016 7.925l3.403 1.582c15.353 7.13 30.76 14.144 46.16 21.168-.578-10.395-1.56-20.697-2.772-31.035q-.453-3.868-.895-7.738-1.261-10.984-2.543-21.966-.787-6.764-1.56-13.532a1667 1667 0 0 0-.594-5.103C162.545 66.378 161.681 57.333 162 48c3.873 1.788 6.027 3.98 8.875 7.188q1.46 1.628 2.922 3.253l1.564 1.747c2.88 3.184 5.826 6.307 8.764 9.437a856 856 0 0 1 13.469 14.719c3.098 3.42 6.251 6.788 9.406 10.156 4.62 4.934 9.19 9.905 13.7 14.941q4.345 4.831 8.738 9.621c.52.574 1.041 1.147 1.578 1.737 2.674 3 2.674 3 5.984 5.201l.698-3.427c1.707-7.665 3.97-15.188 6.134-22.733l1.435-5.026q1.502-5.256 3.009-10.512 1.909-6.667 3.812-13.336 1.481-5.19 2.967-10.38.703-2.455 1.403-4.91c2.362-8.27 4.766-16.526 7.306-24.744l.637-2.076c1.48-4.737 1.48-4.737 2.599-5.856"/><path fill="#FEED8E" d="m299 183 3.457 1.133C326.391 192.707 347.944 209.378 360 232c1.29 2.966 2.298 5.846 3 9l.543 2.402c2.005 11.396-.154 22.68-6.356 32.473A119 119 0 0 1 354 280l-1.45 1.86c-6.432 7.323-16.43 11.294-25.55 14.14v1l-1.854.012c-23.382.273-43.55 4.546-64.623 14.656-3.887 1.47-7.357 1.893-11.46 2.02-.79.03-1.579.062-2.392.094-2.89.098-5.78.161-8.671.218l-3.768.083c-3.462.07-6.923.115-10.385.146q-2.061.02-4.122.055c-16.56.257-31.833-1.748-44.475-13.346-9.854-10.475-12.62-21.317-12.457-35.329.64-11.172 5.172-20.808 10.207-30.609l1.625-3.2c4.03-7.411 9.129-13.404 14.996-19.382a189 189 0 0 0 3.816-4.078C219.272 180.849 263.617 171.295 299 183"/><path fill="#FEB902" d="m268.898 164.762 2.281-.025q2.388-.02 4.776-.032 2.393-.017 4.787-.062c11.452-.213 21.26 1.09 32.258 4.357q1.964.54 3.93 1.07c8.865 2.394 17.228 5.099 25.07 9.93l2.395 1.395c4.83 2.832 9.358 5.79 13.718 9.308 1.855 1.402 1.855 1.402 4.16 2.059 4.042 1.835 6.858 4.75 10.04 7.8l2.012 1.902c4.258 4.062 8.296 8.239 12.062 12.766 1.582 1.866 1.582 1.866 3.773 3.278C392 220 392 220 392.75 223.688L393 227h2c1.965 2.947 2.231 3.696 2.438 7 .295 3.229.295 3.229 2.125 5.875L401 241v2h2l3 6 1.906 3.43c2.729 5.474 4.003 11.256 5.344 17.195l.8 3.482c1.77 8.102 2.765 15.59 1.95 23.893-5.608 1.568-11.22 3.055-16.889 4.389-5.833 1.384-11.183 2.94-16.673 5.423-4.66 2.035-7.433 2.793-12.438 1.188q-2.04-.937-4.066-1.902c-4.946-2.218-9.909-3.534-15.184-4.723l-2.767-.646c-6.233-1.424-12.426-2.53-18.78-3.272L327 297l-1-2 2.273-.664c12.064-3.738 21.291-8.85 28.727-19.336 6.406-12.276 7.877-24.597 4.09-38-3.967-10.92-11.141-18.85-19.09-27l-1.734-1.957C328.17 194.733 309.099 186.28 292 182l-2.13-.537c-7.188-1.642-14.205-1.81-21.558-1.775l-3.762.014c-8.885.114-16.997.734-25.55 3.298l-3.406.996C221.952 188.436 208.558 195.21 198 205l-1.628 1.488C180.57 221.066 167.382 240.298 164 262c-.092 2.29-.13 4.583-.125 6.875l-.008 3.555c.25 6.737 1.295 11.76 4.758 17.57l1.101 1.858c6.242 10.241 15.078 16.88 26.858 19.777 8.31 1.582 16.546 1.636 24.978 1.553l4.243-.02c10.417-.065 20.804-.418 31.195-1.168-3.042 3.269-6.272 5.618-10 8.063-4.701 3.174-9.064 6.545-13.25 10.375l-1.54 1.38c-2.407 2.225-4.298 4.323-6.046 7.104-2.205 3.408-3.587 5.071-7.164 7.078-6.501.93-13.021.509-19.555.156-8.987-.41-17.163 1.348-25.507 4.594l-2.058.775c-5.024 1.962-9.462 4.429-13.864 7.569-2.016.906-2.016.906-4.282.062L152 358v-2h-2l-1.059-3.027-1.379-3.91-.697-1.999c-.985-3.287-.985-3.287-2.865-6.064a307 307 0 0 1-1-8.812q-.245-2.448-.5-4.895l-.219-2.202c-.226-2.064-.226-2.064-.8-3.9-1.156-5.26-.708-10.877-.721-16.25-.01-2.274-.04-4.546-.072-6.82-.06-8.38.55-15.904 2.622-24.062.712-3.156.978-6.143 1.127-9.372.373-5.597 1.884-9.796 4.563-14.687l1.152-2.11c.925-1.644 1.883-3.27 2.848-4.89h2l.813-2.75c1.115-3.052 2.26-4.707 4.187-7.25l1.125-3c8.678-20.625 35.482-43.646 55.875-52q3.495-1.016 7-2 2.106-.944 4.188-1.937c4.492-2.064 9.012-3.22 13.816-4.34 3.602-.87 7.116-1.947 10.644-3.075 5.382-1.484 10.693-1.828 16.25-1.886"/><path fill="#FEBF02" d="M74 111c7.238 2.24 13.962 5.152 20.813 8.375l3.435 1.6q3.588 1.673 7.173 3.35a6743 6743 0 0 0 17.016 7.925l3.403 1.582c15.353 7.13 30.758 14.145 46.16 21.168-3.676 1.225-4.641.637-8.191-.73l-3.116-1.186-3.256-1.272-3.173-1.212a898 898 0 0 1-13.998-5.506c-5.186-2.078-10.41-4.044-15.649-5.985l-2.85-1.059-8.892-3.3-6.078-2.258Q99.399 129.744 92 127l-1 1 .816 1.768 1.176 2.548 1.361 2.95 3.1 6.717a78086 78086 0 0 0 16.16 35l1.154 2.498 1.13 2.444q1.6 3.471 3.196 6.946a675 675 0 0 0 3.552 7.59l1.39 2.95 1.172 2.445C126 204 126 204 126 208c-11.102.768-22.188 1.248-33.312 1.535l-4.775.13q-6.195.169-12.388.33-6.356.17-12.713.343-12.405.335-24.812.662l2.398 2.397q2.835 2.835 5.653 5.689l3.261 3.289 1.608 1.633c3.548 3.57 7.236 6.915 11.043 10.206 3.385 2.967 6.643 6.067 9.912 9.161 4.55 4.294 9.123 8.546 13.813 12.688 3.476 3.095 6.475 6.25 9.312 9.937-4.17-1.753-7.407-4.603-10.875-7.437l-4.059-3.282L78 253.61c-2.956-2.378-5.946-4.712-8.937-7.047-5.011-3.916-9.954-7.909-14.876-11.937a581 581 0 0 0-16.937-13.312c-5.167-3.925-10.298-7.881-15.312-12l-2.91-2.387L17 205v-2c18.34-.28 36.627.534 54.944 1.332q4.875.21 9.75.412l9.543.405 4.485.19c9.77.413 19.523.967 29.278 1.661-6.045-11.745-12.267-23.361-18.805-34.84-6.224-10.935-12.285-21.96-18.344-32.987a1555 1555 0 0 0-6.312-11.357l-1.57-2.811a964 964 0 0 0-2.872-5.105l-1.253-2.252c-.36-.637-.718-1.275-1.088-1.932C74 114 74 114 74 111"/><path fill="#FEBC00" d="M119 435h1l.629 3.813c2.223 12.643 5.18 24.775 12.652 35.445L135 477c-1.317 3.95-2.794 4.287-6.406 6.258l-3.422 1.884-3.672 1.983q-1.852 1.01-3.7 2.024A2279 2279 0 0 1 107 495l-2.91 1.58a1535 1535 0 0 1-7.153 3.858l-2.085 1.123C90.239 504 90.239 504 88 504c.612-3.716 1.67-6.786 3.266-10.191l1.43-3.073 1.554-3.298 1.604-3.436q1.692-3.625 3.39-7.249a2333 2333 0 0 0 5.268-11.343l5.034-10.893c3.043-6.563 6.173-13.07 9.454-19.517"/><path fill="#FDF174" d="M318.863 166.164c2.379.93 4.786 1.752 7.2 2.586 7.197 2.595 14.047 5.94 20.937 9.25v2l2.813.875C353 182 353 182 356 184l1 3c3.008 1.225 3.008 1.225 6 2v2l1.75.25c2.935.978 4.165 2.475 6.25 4.75l2.25 2.188c3.095 3.165 5.989 6.474 8.883 9.824 1.9 2.174 1.9 2.174 4.867 3.988 1.188 3.125 1.188 3.125 2 6-3.072-2.234-5.578-4.6-8-7.5-3.32-3.876-6.903-7.391-10.625-10.875l-1.668-1.588c-3.115-2.878-5.763-4.58-9.707-6.037a182 182 0 0 1-6.312-4.375C347.95 184.26 343.27 181.447 338 179l-2.312-1.48c-3.024-1.71-5.835-2.561-9.188-3.458a422 422 0 0 1-17.27-5.132L306 168l-3.781-1.098c-6.735-1.448-13.654-1.237-20.51-1.218-2.374.003-4.747-.02-7.121-.045-12.588-.052-23.81 1.69-35.588 6.361q-1.994.495-4 .938c-3.691.859-6.739 2.36-10.074 4.128-1.926.934-1.926.934-5.301 1.871-8.873 2.601-15.872 7.513-23.059 13.172C194 194 194 194 191 195l-1 3c-1.46 1.438-1.46 1.438-3.375 3-11.768 10.062-21.67 20.524-27.625 35-3.365 6.683-3.365 6.683-6 8-4.488 7.138-6.805 14.341-8.344 22.574-.936 4.89-2.28 9.645-3.656 14.426h-1c-.328-6.665.816-12.287 2.625-18.687l.827-2.956c2.182-7.553 4.806-14.421 8.548-21.357l1.06-1.977c3.93-7.281 7.854-14.473 12.94-21.023h2l.265-1.738c.94-2.895 2.362-4.293 4.497-6.457l2.368-2.405 2.558-2.525 2.627-2.596c34.14-33.187 92.56-51.366 138.548-33.115"/><path fill="#FEBC00" d="m182 510 1.738.438c6.33 1.383 12.433 1.755 18.887 1.75l2.384.001c5.392-.049 10.641-.522 15.991-1.189-3.02 4.714-6.368 9.005-9.937 13.313a575 575 0 0 0-13.813 17.5c-3.767 4.954-7.546 9.892-11.437 14.75l-2.106 2.628L182 561h-2c-.108-12.447-.065-24.873.438-37.312l.118-3.106.128-2.883.11-2.536C181 513 181 513 182 510"/><path fill="#FEC002" d="M373 40h2c.308 17.582-.569 35.13-1.332 52.69q-.21 4.868-.412 9.735a14097 14097 0 0 1-.595 14.024A1671 1671 0 0 1 371 148l4-1c-1.375 1.5-1.375 1.5-3 3h-2c-.757-9.368-1.212-18.711-1.446-28.106q-.085-3.362-.177-6.724-.258-9.54-.502-19.082-.152-5.88-.315-11.758-.087-3.301-.167-6.602l-.112-4.049-.092-3.552A48 48 0 0 0 366 62a3824 3824 0 0 0-7.562 7.5c-.705.696-1.41 1.392-2.135 2.11a221 221 0 0 0-11.59 12.425c-2.897 3.323-5.935 6.512-8.963 9.715-4.547 4.83-9.083 9.67-13.562 14.563l-2.61 2.847a687 687 0 0 0-5.406 6.024c-.46.514-.918 1.029-1.391 1.559q-1.898 2.131-3.785 4.273C307 125 307 125 305 125v-2a326 326 0 0 1 4.342-3.56c2.674-2.323 4.717-5.06 6.846-7.877l2.894-3.754 1.471-1.923a966 966 0 0 1 6.822-8.761l1.358-1.732c4.08-5.189 8.247-10.304 12.42-15.418 4.518-5.547 8.947-11.16 13.355-16.795a967 967 0 0 1 8.574-10.782 446 446 0 0 0 4.117-5.234l2.176-2.789 1.96-2.54c.55-.605 1.1-1.21 1.665-1.835"/><path fill="#FEBF01" d="M267 23c2.45 2.188 3.611 4.029 4.723 7.109l.927 2.527.983 2.759 1.06 2.908a2829 2829 0 0 1 3.432 9.51q1.801 4.968 3.605 9.935 1.244 3.424 2.484 6.85a2369 2369 0 0 0 8.79 23.816l2.384 6.38q1.718 4.596 3.449 9.19a2298 2298 0 0 1 3.175 8.48l.97 2.548c.73 1.975 1.383 3.98 2.018 5.988l-1 2a3105 3105 0 0 1-13.683-29.61A9031 9031 0 0 0 269 47c-2.954 1.477-3.133 3.467-4.285 6.527l-1.345 3.553-1.433 3.858-1.48 3.943c-3.627 9.695-7.039 19.458-10.382 29.254-2.766 8.076-5.797 15.983-9.075 23.865q-1.193 2.967-2.375 5.938L237 128l-2-2h2l.698-3.427c1.707-7.665 3.97-15.188 6.134-22.733l1.435-5.026q1.502-5.256 3.009-10.512 1.909-6.667 3.812-13.336 1.481-5.19 2.967-10.38.703-2.455 1.403-4.91c2.362-8.27 4.766-16.526 7.306-24.744l.637-2.076c1.48-4.737 1.48-4.737 2.599-5.856"/><path fill="#FEBF02" d="M467 97a137 137 0 0 1-6.738 17.355l-1.083 2.34q-1.741 3.748-3.491 7.493l-2.432 5.237A7786 7786 0 0 1 446 145l-1.06 2.272q-3.678 7.879-7.363 15.755A1828 1828 0 0 0 423 195c-1.376-4.128.15-6.792 1.656-10.672l.891-2.36a1570 1570 0 0 1 2.953-7.718l2.031-5.348q2.672-7.022 5.369-14.037a9738 9738 0 0 0 3.287-8.574Q445.567 129.636 452 113l-17 7.813-2.55 1.172c-8.264 3.796-16.527 7.593-24.794 11.382l-3.187 1.46q-2.925 1.34-5.85 2.675c-3.97 1.812-7.929 3.635-11.857 5.533l-3.575 1.715-2.894 1.422C378 147 378 147 375 146l3.348-1.73a879 879 0 0 0 29.381-16.02c8.655-4.92 17.365-9.736 26.088-14.534 7.932-4.362 15.854-8.738 23.706-13.242C463.625 97 463.625 97 467 97"/><path fill="#FEBF02" d="M530 185c-1.788 3.873-3.98 6.027-7.187 8.875q-1.633 1.464-3.262 2.93l-1.748 1.565c-3.138 2.837-6.217 5.736-9.303 8.63a2260 2260 0 0 1-19.5 18l-4.494 4.12-4.494 4.118q-3.062 2.806-6.117 5.617C467.979 244.293 462.028 249.687 456 255c0-3 0-3 2.379-5.637a354 354 0 0 1 3.183-3.05 1317 1317 0 0 0 3.333-3.247l1.63-1.593c2.421-2.418 4.618-5.01 6.834-7.614 2.356-2.67 4.893-5.137 7.454-7.609 1.883-1.938 3.653-3.915 5.421-5.957 4.544-5.234 9.348-10.212 14.157-15.201l2.062-2.166 1.849-1.925c1.866-2.2 3.24-4.517 4.698-7.001l-2.358.114q-11.158.538-22.318 1.06-5.733.267-11.466.544c-17.294.837-34.538 1.535-51.858 1.282l1-2 3.059-.146c10.123-.52 20.152-1.44 30.218-2.626q3.862-.454 7.725-.895 9.575-1.101 19.149-2.22 8.145-.95 16.293-1.882 3.775-.437 7.549-.884c8.018-.929 15.92-1.657 24.007-1.347"/><path fill="#FEBE02" d="m98 273 2 1c-4.204 1.877-8.41 3.744-12.633 5.578l-1.99.865q-1.911.83-3.824 1.655c-4.514 1.962-8.976 4.027-13.432 6.117a1112 1112 0 0 1-17.172 7.863l-6.924 3.121q-2.37 1.065-4.744 2.123-3.483 1.556-6.957 3.131l-2.146.947c-3.422 1.561-5.043 2.398-7.178 5.6l1.671.47c7.802 2.26 15.402 5.028 23.017 7.842l4.049 1.49a697 697 0 0 1 23.02 8.932c4.86 1.897 9.807 3.485 14.766 5.098 4.573 1.536 9.033 3.296 13.477 5.168-4.122 1.374-7.089.02-11.09-1.219l-2.521-.756c-2.778-.834-5.552-1.68-8.326-2.525q-5.966-1.795-11.934-3.582l-3.169-.952a2092 2092 0 0 0-24.308-7.103l-3.585-1.028a9082 9082 0 0 0-14.049-4.014 6282 6282 0 0 1-9.8-2.801l-2.96-.839-2.729-.783-2.37-.676C3.981 312.994 2.026 312.077 0 311c2.581-3.109 5.368-4.101 9.121-5.469l1.914-.705c2.131-.783 4.267-1.555 6.403-2.326q2.275-.832 4.552-1.667 5.094-1.867 10.196-3.719a9062 9062 0 0 0 19.423-7.09q10.483-3.837 20.969-7.663l3.316-1.21 6.166-2.246 2.814-1.027 2.64-.958q2.447-.904 4.87-1.87c1.852-.734 3.732-1.4 5.616-2.05"/><path fill="#FEBF02" d="M162 48c3.873 1.788 6.027 3.98 8.875 7.188q1.46 1.628 2.922 3.253l1.564 1.747c2.88 3.184 5.826 6.307 8.764 9.437a856 856 0 0 1 13.469 14.719c3.098 3.42 6.251 6.788 9.406 10.156 4.66 4.978 9.28 9.986 13.824 15.07 2.565 2.865 5.15 5.711 7.738 8.555l2.567 2.82L233 123c-3 0-3 0-5.637-2.379a354 354 0 0 1-3.05-3.183 1317 1317 0 0 0-3.247-3.333l-1.593-1.63c-2.418-2.421-5.01-4.618-7.614-6.834-2.67-2.356-5.137-4.893-7.609-7.454-1.936-1.882-3.91-3.653-5.95-5.421-4.48-3.892-8.802-7.938-13.113-12.016l-2.271-2.14c-5.712-5.391-5.712-5.391-7.462-7.27-1.529-1.593-1.529-1.593-4.454-2.34l.184 3.683C172.438 98.141 173.338 123.51 173 149h-1a23723 23723 0 0 1-3.912-34.19q-.901-7.94-1.816-15.88-.883-7.672-1.75-15.347-.331-2.916-.67-5.832C162.699 67.811 161.594 58.028 162 48"/><path fill="#FEBE01" d="M99 346c0 3 0 3-1.266 4.59l-1.77 1.703-1.942 1.898-2.085 1.997q-2.086 2.037-4.167 4.082l-2.006 1.967c-2.533 2.531-4.854 5.209-7.162 7.943-2.651 3.013-5.55 5.776-8.407 8.593-2.635 2.673-5.073 5.48-7.515 8.329-2.196 2.48-4.548 4.777-6.91 7.097-2.552 2.597-4.919 5.34-7.29 8.102A74 74 0 0 1 45 406c12.658.12 25.287-.06 37.938-.5A893 893 0 0 1 122 405v1a18882 18882 0 0 1-52.939 6.349q-7.592.9-15.188 1.768-2.217.254-4.433.516c-8.505 1-16.868 1.603-25.44 1.367 4.9-6.126 10.545-11.282 16.36-16.518 2.712-2.452 5.394-4.936 8.078-7.42L55 386a6173 6173 0 0 1 21.945-20.195 1405 1405 0 0 0 6.485-5.985l1.742-1.615q1.646-1.527 3.289-3.059c3.42-3.17 6.934-6.187 10.539-9.146"/><path fill="#FEC002" d="M454 261c5.13.623 9.97 1.712 14.932 3.161l2.304.661q3.747 1.079 7.49 2.166l5.258 1.514q5.505 1.586 11.01 3.18 7.002 2.028 14.009 4.045 6.738 1.941 13.474 3.886l2.547.735c9.687 2.797 19.352 5.643 28.976 8.652v3a3777 3777 0 0 1-26 10l-2.029.773q-6.112 2.326-12.241 4.612a800 800 0 0 0-3.937 1.484c-1.85.701-3.704 1.389-5.559 2.076l-3.212 1.204c-3.15.887-5.766 1.011-9.022.851v-3q7.338-3.366 14.679-6.726l4.99-2.287 7.186-3.292 2.242-1.029c3.603-1.647 7.206-3.238 10.903-4.666-2.177-2.177-3.532-2.705-6.399-3.724l-2.763-.992-2.998-1.057-3.088-1.107q-4.905-1.754-9.814-3.495a5799 5799 0 0 1-9.74-3.474q-3.03-1.084-6.064-2.157c-5.18-1.85-10.217-3.863-15.223-6.143-2.182-.972-4.379-1.77-6.657-2.484l-2.346-.754-4.773-1.5-2.319-.746-2.08-.653C456 263 456 263 454 261"/><path fill="#FEC326" d="M276.332 164.63c2.335-.005 4.668-.041 7.002-.08 10.51-.077 19.583 1.47 29.666 4.45q1.965.54 3.93 1.07c8.865 2.395 17.228 5.099 25.07 9.93l2.395 1.395c4.83 2.832 9.358 5.79 13.718 9.308 1.855 1.402 1.855 1.402 4.16 2.059 4.042 1.835 6.858 4.75 10.04 7.8l2.012 1.902c4.258 4.062 8.296 8.239 12.062 12.766 1.582 1.866 1.582 1.866 3.773 3.278C392 220 392 220 392.75 223.688L393 227h2c1.965 2.947 2.231 3.696 2.437 7 .296 3.229.296 3.229 2.125 5.875L401 241v2h2l3 6 1.906 3.43c2.729 5.474 4.003 11.256 5.344 17.195l.8 3.482c1.77 8.102 2.765 15.59 1.95 23.893l-3 1-.078-2.867c-.604-15.755-4.228-30.13-9.75-44.852C402 247 402 247 402 245h-3a1505 1505 0 0 1-3-5.875l-1.688-3.305C393 233 393 233 393 231h-2l-1.813-3.25c-1.185-2.087-2.35-3.964-3.812-5.875C384 220 384 220 383.125 217.563c-1.468-3.344-3.452-5.064-6.125-7.563l-3.938-4.062c-3.155-3.174-6.298-5.55-10.062-7.938l-1-2a78 78 0 0 0-5-2v-2l-2.188-.687C352 190 352 190 349.742 187.578c-3.082-2.897-5.427-3.854-9.43-5.14-4.185-1.393-8.307-2.793-12.375-4.5-5.011-2.055-10.152-3.584-15.347-5.106C310 172 310 172 309 171c-20.255-3.876-42.065-3.35-62.254.441-3.34.498-4.68.488-7.746-.441 1.6-.637 3.205-1.259 4.812-1.875l2.708-1.055c9.879-3.038 19.56-3.443 29.812-3.44"/><path fill="#FFB613" d="m196 191 2 1a91 91 0 0 1-4 4h-2l-1 3c-1.531 1.508-1.531 1.508-3.5 3.125-7.454 6.385-13.67 12.168-18.016 21.102C168 226 168 226 165.66 229.12c-3.447 4.716-5.634 9.99-7.972 15.316l-1.377 3.084A1486 1486 0 0 0 153 255h-2l-.113 2.238-.2 3.075-.175 2.988c-.436 3.146-1.094 5.878-1.977 8.914-1.601 5.664-2.328 11.177-2.785 17.035l-.247 3.035c-.587 8.033-.492 15.706.497 23.715l.414 3.414c.848 6.14 2.134 12.007 3.867 17.953.72 2.637 1.237 5.256 1.719 7.945.745 3.97 2.044 7.131 4 10.688v2l2 1-4 1-2-4h-2l-1.059-3.027-1.379-3.91-.697-1.999c-.985-3.287-.985-3.287-2.865-6.064a307 307 0 0 1-1-8.812q-.245-2.448-.5-4.895l-.219-2.202c-.226-2.064-.226-2.064-.8-3.9-1.156-5.26-.708-10.877-.721-16.25-.01-2.274-.04-4.546-.072-6.82-.06-8.38.55-15.904 2.622-24.062.712-3.156.978-6.143 1.127-9.372.373-5.597 1.884-9.796 4.563-14.687l1.152-2.11c.925-1.644 1.883-3.27 2.848-4.89h2l.813-2.75c1.115-3.052 2.26-4.707 4.187-7.25l1.125-3c6.56-15.592 22.323-28.24 34.875-39"/><path fill="#FAFC20" d="M120 441h1l.594 3.121c2.29 11.168 6.192 20.766 11.406 30.879-25.42 13-25.42 13-30 13 .579-5.82 2.211-10.752 4.344-16.18l.997-2.586q1.04-2.687 2.088-5.37c1.075-2.748 2.138-5.501 3.2-8.255q1.012-2.613 2.027-5.226l.97-2.503c2.257-5.763 2.257-5.763 3.374-6.88"/><path fill="#FDBC00" d="m273 540 1.95.55c7.304 2.033 14.652 3.792 22.05 5.45-.707 6.666-2.52 12.947-4.375 19.375l-.922 3.348-.914 3.175-.822 2.896L289 577l-3 1a6304 6304 0 0 1-5.554-14.789q-.944-2.517-1.892-5.031-1.361-3.614-2.71-7.23l-.862-2.274C273.858 545.65 273 543.256 273 540"/><path fill="#FBFD1A" d="m186 511 7 1q2.746.112 5.496.098l2.94-.01 3.001-.025 3.084-.014q3.74-.018 7.479-.049l-4.476 5.222-3.184 3.72c-3.971 4.59-8.053 9.081-12.153 13.558l-1.744 1.928c-1.44 1.563-2.937 3.072-4.443 4.572h-2z"/><path fill="#FED94C" d="m276.688 162.875 3.26-.012c5.78.007 11.337.266 17.052 1.137v1l-3.083.044c-3.843.059-7.686.136-11.529.218q-2.475.05-4.951.084c-13.542.194-25.73 1.615-38.437 6.654q-1.994.495-4 .938c-3.691.859-6.739 2.36-10.074 4.128-1.926.934-1.926.934-5.301 1.871-8.873 2.601-15.872 7.513-23.059 13.172C194 194 194 194 191 195l-1 3c-1.46 1.438-1.46 1.438-3.375 3-11.78 10.074-21.642 20.523-27.625 35-1.259 2.387-2.624 4.676-4 7-.75-1.562-.75-1.562-1-4 .915-1.733 1.843-3.462 2.879-5.125 1.696-2.837 2.864-5.821 4.121-8.875l1-2h2l.688-2.187c1.583-3.393 3.635-5.197 6.312-7.813q1.401-1.855 2.75-3.75c9.846-13.354 24.008-24.785 39.25-31.25a592 592 0 0 0 6.75-3.437c18.228-9.2 36.717-11.761 56.938-11.688"/><path fill="#FDED6E" d="M293 162c9.33-.314 17.192.723 25.863 4.164 2.379.93 4.786 1.752 7.2 2.586 7.197 2.595 14.047 5.94 20.937 9.25v2l2.813.875C353 182 353 182 356 184l1 3c3.008 1.225 3.008 1.225 6 2v2l1.75.25c2.935.978 4.165 2.475 6.25 4.75l2.25 2.188c3.095 3.165 5.989 6.474 8.883 9.824 1.9 2.174 1.9 2.174 4.867 3.988 1.188 3.125 1.188 3.125 2 6-3.072-2.234-5.578-4.6-8-7.5-3.32-3.876-6.903-7.391-10.625-10.875l-1.668-1.588c-3.115-2.878-5.763-4.58-9.707-6.037a182 182 0 0 1-6.312-4.375C347.95 184.26 343.27 181.447 338 179l-2.312-1.48c-3.024-1.71-5.835-2.561-9.188-3.458-4.802-1.312-9.565-2.686-14.312-4.187-3.796-1.19-7.54-2.212-11.438-3L297 166l-1-2z"/><path fill="#FED03B" d="M362 193c4.077 1.658 7.023 4.535 10.188 7.5l1.734 1.61c4.32 4.057 8.321 8.326 12.176 12.831 1.824 2.12 1.824 2.12 4.101 3.606C392 220 392 220 392.75 223.687L393 227h2c1.965 2.947 2.231 3.696 2.438 7 .295 3.229.295 3.229 2.125 5.875L401 241v2h2l3 6 1.906 3.43c2.729 5.474 4.003 11.256 5.344 17.195l.8 3.482c1.77 8.102 2.765 15.59 1.95 23.893l-3 1-.078-2.867c-.604-15.755-4.228-30.13-9.75-44.852C402 247 402 247 402 245h-3a1505 1505 0 0 1-3-5.875l-1.687-3.305C393 233 393 233 393 231h-2l-1.812-3.25c-1.186-2.087-2.352-3.964-3.813-5.875C384 220 384 220 383.125 217.563c-1.43-3.256-3.57-5.188-6.125-7.563-5.548-5.333-10.602-10.67-15-17"/><path fill="#FECC31" d="M153 243c.955 2.17 1.144 3.563.398 5.824-.757 1.744-1.574 3.462-2.398 5.176h-2l-.113 2.168c-.446 6.757-1.487 13.07-3.168 19.629-5.774 25.732-1.317 54.494 7.644 78.945C154 357 154 357 153 359l-1-3h-2l-1.059-3.027-1.379-3.91-.697-1.999c-.985-3.287-.985-3.287-2.865-6.064a307 307 0 0 1-1-8.812q-.245-2.448-.5-4.895l-.219-2.202c-.226-2.064-.226-2.064-.8-3.9-1.156-5.26-.708-10.877-.721-16.25-.01-2.274-.04-4.546-.072-6.82-.06-8.38.55-15.904 2.622-24.062.712-3.156.978-6.143 1.127-9.372.373-5.597 1.884-9.796 4.563-14.687l1.152-2.11c.925-1.644 1.883-3.27 2.848-4.89"/><path fill="#FFBA1A" d="m196 191 2 1a91 91 0 0 1-4 4h-2l-1 3c-1.531 1.508-1.531 1.508-3.5 3.125-7.454 6.385-13.67 12.168-18.016 21.102C168 226 168 226 165.66 229.12c-3.447 4.716-5.634 9.99-7.972 15.316l-1.377 3.084A1486 1486 0 0 0 153 255h-2v3h-2l-1 3 1-7h2l.293-2.57c.798-3.872 2.198-6.802 4.02-10.305 1.927-3.72 3.837-7.43 5.562-11.25 7.893-15.46 22.136-27.74 35.125-38.875"/><path fill="#FEDB51" d="M297 164v1l-3.083.044c-3.843.059-7.686.136-11.529.218q-2.475.05-4.951.084c-13.542.194-25.73 1.615-38.437 6.654q-1.994.495-4 .938c-2.999.687-5.421 1.722-8.125 3.187-3.418 1.824-5.952 2.267-9.875 1.875 3.838-2.558 7.88-4.163 12.125-5.937l2.477-1.053c20.645-8.673 43.24-10.339 65.398-7.01"/><path fill="#FEE755" d="M144 267c1.371 3.76.578 6.365-.418 10.172-1.747 7.687-2.008 15.002-1.918 22.861.024 2.23.02 4.457.014 6.686.015 6.925.2 13.551 1.993 20.292.377 2.281.03 3.805-.671 5.989-6.415-15.382-8.254-35.833-4-52h2l.375-3.625c.448-3.651 1.33-6.92 2.625-10.375"/><path fill="#FED83F" d="M401 243h2l3 6 1.906 3.43c2.729 5.474 4.003 11.256 5.344 17.195l.8 3.482c1.77 8.102 2.765 15.59 1.95 23.893l-3 1-.078-2.867c-.628-16.443-4.57-31.128-10.531-46.414C401 245 401 245 401 243"/><path fill="#FFBC1A" d="m263.59 165.867 2.491-.003q2.601 0 5.202.006 3.963.005 7.926-.007 2.535 0 5.068.004l2.378-.006c4.225.018 8.182.305 12.345 1.139v1l-2.987.044c-24.876.295-24.876.295-49.513 3.433-3.033.453-4.694.619-7.5-.477q2.591-.975 5.188-1.937l2.917-1.09c5.524-1.857 10.687-2.12 16.485-2.106"/><path fill="#FEE460" d="m242 168-3.035 1.207-4.028 1.606-1.99.79c-3.28 1.31-6.531 2.653-9.756 4.096C220 177 220 177 217 177l-1 3c-2.004 1.246-2.004 1.246-4.562 2.438l-2.739 1.308-4.93 2.29c-3.395 1.621-6.281 3.252-9.144 5.714C192 194 192 194 190 194l-1 3c-1.602 1.613-1.602 1.613-3.625 3.313l-2.164 1.835L181 204q-2.001 1.717-4 3.438L174 210c5.953-14.063 25.4-26.231 39-32a592 592 0 0 0 6.75-3.437c16.754-8.488 16.754-8.488 22.25-6.563"/><path fill="#FEED65" d="M158 230c0 8.039-5.946 17.196-10 24-1.5 3.372-2.367 6.485-2.937 10.125-.977 5.743-2.44 11.284-4.063 16.875h-1c-.328-6.666.818-12.286 2.625-18.687l.814-2.934c2.164-7.542 4.909-14.422 8.561-21.379l1.488-3.219C155 232 155 232 158 230"/><path fill="#FFC227" d="M237 173c-3.95 2.338-7.798 4.373-12.035 6.159-3.587 1.535-7.118 3.19-10.653 4.841l-2.26 1.04c-3.03 1.415-5.698 2.677-8.322 4.773-1.73 1.187-1.73 1.187-3.98.875L198 190c8.482-6.424 15.76-11.125 26-14 2.32-1.054 4.61-2.149 6.887-3.293 2.468-.826 3.695-.564 6.113.293"/><path fill="#F9BA03" d="M376 536c5.92 1.76 11.416 4.397 17 7v10c-3.411-1.706-4.798-2.572-7.234-5.223l-1.739-1.88-1.777-1.96-1.824-1.97C376 537.145 376 537.145 376 536"/><path fill="#FEC92E" d="M384 216c3.864 2.746 5.29 4.667 7 9 1.967 1.15 1.967 1.15 4 2 1.965 2.947 2.231 3.696 2.438 7 .34 3.448.914 4.697 3.562 7v4h-2a1505 1505 0 0 1-3-5.875l-1.687-3.305C393 233 393 233 393 231h-2l-1.812-3.25c-1.216-2.15-2.39-4.002-3.938-5.937C384 220 384 220 384 216"/><path fill="#FFC42A" d="m196 191 2 1a91 91 0 0 1-4 4h-2l-1 3c-1.531 1.508-1.531 1.508-3.5 3.125-9.021 7.5-9.021 7.5-15.875 16.875-1.625 3-1.625 3-4.625 4a178 178 0 0 0-2 4 90 90 0 0 1-4 4c5.745-16.104 22.373-29.175 35-40"/><path fill="#FAFC11" d="M280 543c7.429 1 7.429 1 11 2-.665 4.389-2.188 7.981-4 12-2.553-2.275-3.841-4.432-5.187-7.562l-1.043-2.38C280 545 280 545 280 543"/><path fill="#FFB511" d="M198 191c2.063.438 2.063.438 4 1l-1.615 1.182c-6.344 4.772-11.897 10.093-17.447 15.756l-2.624 2.65q-3.164 3.2-6.314 6.412l-1-3q3.745-3.786 7.5-7.562c.696-.705 1.392-1.41 2.11-2.135 4.144-4.164 8.385-8.143 12.841-11.97A46 46 0 0 0 198 191"/><path fill="#FEDA4E" d="M297 165c5.572-.174 10.47.307 15.875 1.75l2.092.542c5.465 1.461 11.035 3.01 16.033 5.708l1 2c-3.854-.708-7.555-1.704-11.312-2.812-7.847-2.272-15.754-4.25-23.688-6.188z"/><path fill="#FFB815" d="M145 325c2.458 2.945 3.617 5.418 4.563 9.125l.753 2.926c.637 2.745 1.177 5.49 1.684 8.262.745 3.968 2.044 7.13 4 10.687v2l2 1-4 1c-2.744-7.826-5.287-15.644-7.312-23.687l-.52-2.032c-.792-3.236-1.168-5.918-1.168-9.281"/><path fill="#FEDB50" d="M333 175c9.367 2.764 23.031 7.615 28.438 16.313L362 193c-4.51-2.075-8.558-4.91-12.691-7.635A99.5 99.5 0 0 0 338 179a98 98 0 0 1-5-3z"/><path fill="#FED93D" d="m144 333 .883 1.781a255 255 0 0 0 2.992 5.719A81 81 0 0 1 154 357l-1 2-1-3h-2l-1.059-3.027-1.379-3.91-.697-1.999c-.985-3.287-.985-3.287-2.865-6.064-.141-2.67-.042-5.324 0-8"/><path fill="#FEDF51" d="m395 227 3 1 1 5h2l1.438 3.375c.815 1.892 1.64 3.782 2.562 5.625.04 2 .043 4 0 6l-2-2v-3h-2l-.312-1.937L400 239l-3-1-.684-5.957c-.288-2.237-.288-2.237-1.316-5.043"/><path fill="#FECF3D" d="M250 168c-10.467 3.964-10.467 3.964-15.187 5-3.111.816-5.175 1.631-7.938 3.125-3.418 1.824-5.952 2.267-9.875 1.875 8.174-5.45 23.236-12.931 33-10"/><path fill="#FEC70B" d="m245 100 2 1c-1.663 5.86-3.512 11.428-6 17a1238 1238 0 0 0-4 10l-2-2h2l.688-3.5c1.049-4.745 2.432-9.363 3.875-14l.672-2.178c1.64-5.196 1.64-5.196 2.765-6.322"/><path fill="#FED847" d="M153 243c.955 2.17 1.144 3.563.398 5.824-.757 1.744-1.574 3.462-2.398 5.176h-2l-.367 2.082-.508 2.73-.492 2.708C147 264 147 264 145 267c-.686-9.435 3.282-16.08 8-24"/><path fill="#FECE11" d="m447 194-1 2c-3 1-4.974 1.116-8.105 1.098l-2.979-.01-3.103-.025-3.14-.014q-3.836-.018-7.673-.049l1-2q4-.255 8-.5l2.254-.145c4.926-.3 9.811-.4 14.746-.355"/><path fill="#FEEE63" d="M410 257c2.332 3.498 3.152 6.914 4.125 10.938.182.716.364 1.432.55 2.17.846 3.427 1.325 6.34 1.325 9.892h-2q-1.011-4.06-2-8.125l-.578-2.305c-1.035-4.286-1.65-8.124-1.422-12.57"/><path fill="#FFBB19" d="M237 173c-4.573 2.706-9.088 4.946-14 7l-3.312 1.75L217 183l-2-1c15.73-11.156 15.73-11.156 22-9"/><path fill="#FECB0C" d="M153 147c4.468 1.399 8.638 3.136 12.875 5.125l3.492 1.633L172 155c-4.265 1.422-7.2-.346-11.187-1.937l-2.272-.881Q155.767 151.1 153 150z"/><path fill="#FEC72D" d="M147 262c1.369 3.76.609 6.441-.375 10.25-1.219 4.937-2.13 9.693-2.625 14.75h-1c-.533-9.187.553-16.46 4-25"/><path fill="#FFBA16" d="M367 201c3.067 1.362 5.118 2.897 7.438 5.313l1.816 1.878L378 210l2.875 2.75C383 215 383 215 384 218c-3.343-1.114-4.06-1.975-6.25-4.625-2.99-3.539-6.132-6.812-9.465-10.027C367 202 367 202 367 201"/><path fill="#FEDD50" d="M384 214c7.48 4.652 7.48 4.652 8.754 7.957.246 1.918.246 1.918.246 5.043-3.559-2.254-4.544-4.118-6-8a101 101 0 0 0-3-3z"/><path fill="#FFC222" d="M393 231h2l1.313 3.313c.962 2.282 1.604 3.604 3.375 5.375L401 241v4h-2a1505 1505 0 0 1-3-5.875l-1.687-3.305C393 233 393 233 393 231"/><path fill="#FED013" d="M119 191c4.157 4.78 7 10.681 7 17h-6v-1h5l-1.566-2.992q-1-1.942-1.996-3.883l-1.038-1.973c-.86-1.687-1.637-3.418-2.4-5.152z"/><path fill="#FCC52A" d="M149 343c2.913 1.457 3.017 3.346 4.063 6.375l1.035 2.96q.958 2.831 1.902 5.665l2 1-4 1a2855 2855 0 0 1-2.5-7.375l-.723-2.117C149 345.227 149 345.227 149 343"/><path fill="#FECF0E" d="M86 334a366 366 0 0 1 17 6c-3.887 1.296-5.738.44-9.625-.75l-3.54-1.047L87 337z"/><path fill="#FED645" d="M160 229c.684 1.672.684 1.672 1 4-1.215 2.578-1.215 2.578-2.937 5.25l-1.715 2.703L155 243c-.684-1.672-.684-1.672-1-4 1.215-2.578 1.215-2.578 2.938-5.25l1.714-2.703z"/><path fill="#FEE44B" d="M144 333a63 63 0 0 1 3.688 8.563l.824 2.316C149 346 149 346 148 349c-3.326-5.583-4.465-9.497-4-16"/><path fill="#FEEA63" d="m395 227 3 1 1 5h2v4h-2a652 652 0 0 1-2-3.875l-1.125-2.18C395 229 395 229 395 227"/><path fill="#FFC125" d="M158 236c.75 1.563.75 1.563 1 4-1.13 2.503-2.521 4.67-4 7-.75-1.562-.75-1.562-1-4 1.13-2.503 2.521-4.67 4-7"/><path fill="#FEDA50" d="M215.234 178.348 217 179a432 432 0 0 1-4.375 2.563l-2.46 1.44L208 184l-2-1c1.071-.87 2.157-1.72 3.25-2.562l1.828-1.442C213 178 213 178 215.234 178.348"/></svg>